<?xml version="1.0" ?><!DOCTYPE svg  PUBLIC '-//W3C//DTD SVG 1.1//EN'  'http://www.w3.org/Graphics/SVG/1.1/DTD/svg11.dtd'><svg enable-background="new 0 0 500 500" height="500px" id="Layer_1" version="1.1" viewBox="0 0 500 500" width="500px" xml:space="preserve" xmlns="http://www.w3.org/2000/svg" xmlns:xlink="http://www.w3.org/1999/xlink"><path clip-rule="evenodd" d="M31.949,390.323c0,20.078,16.264,36.345,36.34,36.345h363.421  c20.078,0,36.34-16.267,36.34-36.345V145.018c0-20.079-16.262-36.342-36.34-36.342H250V92.324c0-11.086-8.903-19.991-19.989-19.991  h-96.304c-11.086,0-19.989,8.905-19.989,19.991v270.746c0,9.99-8.177,18.172-18.17,18.172c-9.996,0-18.173-8.182-18.173-18.172  V131.389c0-12.536-10.177-22.713-22.713-22.713c-12.536,0-22.713,10.177-22.713,22.713V390.323z" fill="#010101" fill-rule="evenodd"/></svg>